<?xml version="1.0" encoding="UTF-8" standalone="no"?>
<!-- Created with Inkscape (http://www.inkscape.org/) -->

<svg
   xmlns:dc="http://purl.org/dc/elements/1.1/"
   xmlns:cc="http://creativecommons.org/ns#"
   xmlns:rdf="http://www.w3.org/1999/02/22-rdf-syntax-ns#"
   xmlns:svg="http://www.w3.org/2000/svg"
   xmlns="http://www.w3.org/2000/svg"
   xmlns:sodipodi="http://sodipodi.sourceforge.net/DTD/sodipodi-0.dtd"
   xmlns:inkscape="http://www.inkscape.org/namespaces/inkscape"
   width="479.04089"
   height="301.89502"
   id="svg2"
   version="1.1"
   inkscape:version="0.47 r22583"
   sodipodi:docname="Novo documento 1">
  <defs
     id="defs4">
    <inkscape:perspective
       sodipodi:type="inkscape:persp3d"
       inkscape:vp_x="0 : 526.18109 : 1"
       inkscape:vp_y="0 : 1000 : 0"
       inkscape:vp_z="744.09448 : 526.18109 : 1"
       inkscape:persp3d-origin="372.04724 : 350.78739 : 1"
       id="perspective10" />
    <inkscape:perspective
       id="perspective2824"
       inkscape:persp3d-origin="0.5 : 0.33333333 : 1"
       inkscape:vp_z="1 : 0.5 : 1"
       inkscape:vp_y="0 : 1000 : 0"
       inkscape:vp_x="0 : 0.5 : 1"
       sodipodi:type="inkscape:persp3d" />
  </defs>
  <sodipodi:namedview
     id="base"
     pagecolor="#ffffff"
     bordercolor="#666666"
     borderopacity="1.0"
     inkscape:pageopacity="0.0"
     inkscape:pageshadow="2"
     inkscape:zoom="0.49497475"
     inkscape:cx="550.64375"
     inkscape:cy="377.7627"
     inkscape:document-units="px"
     inkscape:current-layer="layer1"
     showgrid="false"
     inkscape:window-width="1280"
     inkscape:window-height="962"
     inkscape:window-x="-8"
     inkscape:window-y="-8"
     inkscape:window-maximized="1" />
  <metadata
     id="metadata7">
    <rdf:RDF>
      <cc:Work
         rdf:about="">
        <dc:format>image/svg+xml</dc:format>
        <dc:type
           rdf:resource="http://purl.org/dc/dcmitype/StillImage" />
        <dc:title></dc:title>
      </cc:Work>
    </rdf:RDF>
  </metadata>
  <g
     inkscape:label="Camada 1"
     inkscape:groupmode="layer"
     id="layer1"
     transform="translate(-77.906792,-92.608209)">
    <path
       style="fill:#000000;fill-opacity:1;stroke:#000000;stroke-width:1px;stroke-linecap:butt;stroke-linejoin:miter;stroke-opacity:1"
       d="m 532.316,93.220285 c -7.64989,-0.718365 -16.94582,2.035067 -21.0111,7.728505 -3.10582,4.34972 -11.95065,5.82313 -17.37341,5.95108 -45.9315,1.08382 -92.02454,2.13319 -137.91528,2.23486 -10.16907,-5.92283 -22.76855,-2.39018 -34.06821,-2.77961 -18.54876,-0.63928 -37.1366,1.0188 -55.61307,-1.30969 -12.65227,-1.59449 -26.82522,3.5774 -38.49484,-0.82185 -7.57039,-2.85391 -15.44956,2.82258 -12.29623,10.22473 5.67423,9.07084 -6.19885,3.22608 -8.61333,11.24311 -3.72446,5.74828 -10.80256,8.88884 -16.74654,3.79424 -4.89402,-4.19468 -12.94439,-5.28684 -18.97011,-3.40655 -2.6303,8.62904 8.8162,5.22211 13.32449,9.46665 4.8084,4.52708 10.60806,7.63062 8.14559,15.20907 -1.91577,5.89597 0.77232,13.44843 -5.99961,17.32674 -12.85429,7.36169 -28.22123,6.32323 -41.79898,11.05322 -4.93359,1.71868 -17.55439,-1.24962 -14.23326,7.53306 3.42871,9.06719 1.96515,19.96755 -1.92903,28.33052 -6.73945,14.47338 -15.78872,28.10729 -24.46191,41.75546 -14.053062,22.11395 -14.540624,49.37639 -20.109748,74.21983 -2.471195,11.02381 -4.936861,21.53684 -5.601452,32.76128 -0.458963,7.75153 -0.156859,15.59312 6.182819,20.79806 7.385573,8.09338 19.723641,7.61776 29.924891,8.5459 17.1381,-1.36541 40.06065,5.18433 51.56208,-4.43011 6.29581,-5.26288 2.93701,-19.23526 11.10544,-25.62608 6.77041,-5.29702 -0.16905,-14.74491 0.15766,-22.17378 0.45394,-10.33022 3.47915,-20.17969 8.24607,-29.19768 -6.27026,-7.57462 -3.54254,-19.99877 0.60528,-27.77198 5.03879,-9.4429 17.87294,-14.45542 27.76152,-11.19674 6.43317,2.11999 10.43245,9.22088 16.42798,11.22112 4.289,-5.58317 7.66874,-2.64212 15.18881,-2.3027 18.88639,0.47508 38.22074,-5.38213 53.05525,-17.06809 8.28703,-7.61722 4.17256,-19.45411 10.64385,-28.25379 5.72809,-7.78908 13.58023,-13.3761 23.18662,-12.2896 7.45476,-0.23624 15.93188,1.675 20.6908,-5.59991 0.19765,-13.32436 -1.44835,-27.22514 -0.10764,-40.19212 1.9595,-8.20022 9.16777,-8.54098 16.27414,-7.82993 20.06315,0.36682 40.03403,-1.95898 60.07533,-2.08968 5.81963,-10.19801 17.28145,-13.63037 26.98977,-17.82005 12.17482,-5.25411 26.50633,-1.03131 42.19625,-2.75818 15.68992,-1.72687 35.60922,1.19632 52.39442,-1.46145 7.51895,-1.19054 4.84138,-13.8191 4.99645,-20.46087 0.17466,-7.48105 -2.35817,-14.45443 -3.67252,-21.68098 -1.12217,-6.169832 -12.66697,0.88329 -11.87757,-8.809099 -2.36744,-1.757694 -5.42927,-1.802817 -8.24167,-2.066916 z M 269.06533,224.14781 c 13.20694,1.41717 30.64315,6.74387 32.39857,22.14966 1.43858,15.15201 -13.60659,24.52526 -26.54775,27.64578 -11.83004,3.62674 -25.34556,6.03972 -37.25725,2.27956 -11.40743,-5.30503 -19.16555,-21.18292 -10.13721,-31.92243 3.34362,-3.67728 6.35528,-17.82816 11.18769,-10.5052 4.14658,4.59445 15.57811,0.38278 13.72593,9.15067 -0.11081,11.67965 10.49055,21.76835 21.10772,24.6801 11.74614,-0.59255 -2.46581,-5.19537 -6.28178,-7.69816 -11.01454,-8.42899 -12.36406,-29.67578 1.80408,-35.77998 z"
       id="path2830"
       sodipodi:nodetypes="csscsssccscsssssssssccssscsscccscccccszssscscccccccccc" />
  </g>
</svg>
